<?xml version="1.0" encoding="UTF-8" standalone="no"?>
<!-- Created with Inkscape (http://www.inkscape.org/) -->

<svg
   xmlns:dc="http://purl.org/dc/elements/1.1/"
   xmlns:cc="http://creativecommons.org/ns#"
   xmlns:rdf="http://www.w3.org/1999/02/22-rdf-syntax-ns#"
   xmlns:svg="http://www.w3.org/2000/svg"
   xmlns="http://www.w3.org/2000/svg"
   xmlns:sodipodi="http://sodipodi.sourceforge.net/DTD/sodipodi-0.dtd"
   xmlns:inkscape="http://www.inkscape.org/namespaces/inkscape"
   id="svg2"
   version="1.1"
   inkscape:version="0.91 r13725"
   width="669.31177"
   height="161.82127"
   viewBox="0 0 669.31177 161.82127"
   sodipodi:docname="bt_logo_transparent.svg">
  <metadata
     id="metadata8">
    <rdf:RDF>
      <cc:Work
         rdf:about="">
        <dc:format>image/svg+xml</dc:format>
        <dc:type
           rdf:resource="http://purl.org/dc/dcmitype/StillImage" />
        <dc:title></dc:title>
      </cc:Work>
    </rdf:RDF>
  </metadata>
  <defs
     id="defs6" />
  <sodipodi:namedview
     pagecolor="#ffffff"
     bordercolor="#666666"
     borderopacity="1"
     objecttolerance="10"
     gridtolerance="10"
     guidetolerance="10"
     inkscape:pageopacity="0"
     inkscape:pageshadow="2"
     inkscape:window-width="1920"
     inkscape:window-height="1137"
     id="namedview4"
     showgrid="false"
     inkscape:zoom="0.70710678"
     inkscape:cx="196.95025"
     inkscape:cy="198.21239"
     inkscape:window-x="-8"
     inkscape:window-y="-8"
     inkscape:window-maximized="1"
     inkscape:current-layer="svg2"
     showguides="false"
     fit-margin-top="0"
     fit-margin-left="0"
     fit-margin-right="0"
     fit-margin-bottom="0" />
  <g
     id="g4356"
     transform="translate(902.57178,-307.13536)">
    <path
       d="m -752.4536,374.66127 0,-17.8622 56.94129,0 0,17.8622 -18.1516,0 0,49.91493 -20.58837,0 0,-49.91493 -18.20132,0 z"
       style="font-style:normal;font-variant:normal;font-weight:900;font-stretch:normal;font-size:medium;line-height:125%;font-family:'Proxima Nova';-inkscape-font-specification:'Proxima Nova Heavy';letter-spacing:0px;word-spacing:0px;fill:#f5f5f1;fill-opacity:1;stroke:none;stroke-width:1px;stroke-linecap:butt;stroke-linejoin:miter;stroke-opacity:1"
       id="path4186-7"
       inkscape:connector-curvature="0" />
    <path
       d="m -691.98145,374.66127 0,-17.8622 56.94129,0 0,17.8622 -18.15158,0 0,49.91493 -20.58839,0 0,-49.91493 -18.20132,0 z"
       style="font-style:normal;font-variant:normal;font-weight:900;font-stretch:normal;font-size:medium;line-height:125%;font-family:'Proxima Nova';-inkscape-font-specification:'Proxima Nova Heavy';letter-spacing:0px;word-spacing:0px;fill:#f5f5f1;fill-opacity:1;stroke:none;stroke-width:1px;stroke-linecap:butt;stroke-linejoin:miter;stroke-opacity:1"
       id="path4188-3"
       inkscape:connector-curvature="0" />
    <path
       d="m -629.71164,424.5762 0,-67.77713 20.53865,0 0,49.91493 25.76034,0 0,17.8622 -46.29899,0 z"
       id="path4190-0"
       inkscape:connector-curvature="0"
       style="font-style:normal;font-variant:normal;font-weight:900;font-stretch:normal;font-size:medium;line-height:125%;font-family:'Proxima Nova';-inkscape-font-specification:'Proxima Nova Heavy';letter-spacing:0px;word-spacing:0px;fill:#f5f5f1;fill-opacity:1;stroke:none;stroke-width:1px;stroke-linecap:butt;stroke-linejoin:miter;stroke-opacity:1" />
    <path
       d="m -577.92692,356.79867 0,67.77747 51.52148,0 0,-17.86133 -30.98242,0 0,-7.44336 30.28711,0 0,-17.86133 -30.28711,0 0,-6.74804 51.93555,-4.1e-4 0,49.91447 20.58789,0 0,-49.91406 18.15234,0 0,-17.86329 z"
       id="path4192-6"
       inkscape:connector-curvature="0"
       sodipodi:nodetypes="ccccccccccccccccc"
       style="font-style:normal;font-variant:normal;font-weight:900;font-stretch:normal;font-size:medium;line-height:125%;font-family:'Proxima Nova';-inkscape-font-specification:'Proxima Nova Heavy';letter-spacing:0px;word-spacing:0px;fill:#f5f5f1;fill-opacity:1;stroke:none;stroke-width:1px;stroke-linecap:butt;stroke-linejoin:miter;stroke-opacity:1" />
    <path
       d="m -462.01179,424.5762 0,-67.77713 51.52068,0 0,17.8622 -30.98203,0 0,6.74794 30.2858,0 0,17.8622 -30.2858,0 0,7.44259 30.98203,0 0,17.8622 -51.52068,0 z"
       style="font-style:normal;font-variant:normal;font-weight:900;font-stretch:normal;font-size:medium;line-height:125%;font-family:'Proxima Nova';-inkscape-font-specification:'Proxima Nova Heavy';letter-spacing:0px;word-spacing:0px;fill:#f5f5f1;fill-opacity:1;stroke:none;stroke-width:1px;stroke-linecap:butt;stroke-linejoin:miter;stroke-opacity:1"
       id="path4196-0"
       inkscape:connector-curvature="0" />
    <path
       d="m -407.73978,390.73725 q 0,-10.27077 4.87358,-18.30876 4.92332,-8.03798 13.37748,-12.40431 8.50389,-4.36631 19.09647,-4.36631 5.12223,0 9.59797,1.19081 4.52546,1.1412 7.75794,3.07627 3.28221,1.88546 5.96764,4.56478 2.73518,2.62972 4.47574,5.30905 1.7903,2.62971 3.08328,5.60674 l -17.70402,8.23646 q -1.34271,-4.11822 -5.0725,-6.99602 -3.68005,-2.8778 -8.10605,-2.8778 -7.31037,0 -11.88556,4.9121 -4.5752,4.86249 -4.5752,12.05699 0,7.1945 4.5752,12.1066 4.57519,4.86249 11.88556,4.86249 4.426,0 8.10605,-2.8778 3.72979,-2.8778 5.0725,-6.99603 l 17.70402,8.13723 q -1.29298,2.92741 -3.03356,5.55712 -1.74056,2.62972 -4.47573,5.30905 -2.68544,2.67933 -5.96764,4.6144 -3.23247,1.93508 -7.75795,3.12589 -4.52546,1.24043 -9.64769,1.24043 -10.59258,0 -19.09647,-4.36632 -8.5039,-4.41593 -13.37748,-12.45392 -4.87358,-8.03799 -4.87358,-18.25914 z"
       style="font-style:normal;font-variant:normal;font-weight:900;font-stretch:normal;font-size:medium;line-height:125%;font-family:'Proxima Nova';-inkscape-font-specification:'Proxima Nova Heavy';letter-spacing:0px;word-spacing:0px;fill:#f5f5f1;fill-opacity:1;stroke:none;stroke-width:1px;stroke-linecap:butt;stroke-linejoin:miter;stroke-opacity:1"
       id="path4198-9"
       inkscape:connector-curvature="0" />
    <path
       d="m -335.13628,424.5762 0,-67.77713 20.53865,0 0,23.96511 24.3679,0 0,-23.96511 20.53865,0 0,67.77713 -20.53865,0 0,-25.90019 -24.3679,0 0,25.90019 -20.53865,0 z"
       style="font-style:normal;font-variant:normal;font-weight:900;font-stretch:normal;font-size:medium;line-height:125%;font-family:'Proxima Nova';-inkscape-font-specification:'Proxima Nova Heavy';letter-spacing:0px;word-spacing:0px;fill:#f5f5f1;fill-opacity:1;stroke:none;stroke-width:1px;stroke-linecap:butt;stroke-linejoin:miter;stroke-opacity:1"
       id="path4200-4"
       inkscape:connector-curvature="0" />
    <g
       id="text3363-1-8"
       style="font-style:normal;font-variant:normal;font-weight:900;font-stretch:normal;font-size:101.73189545px;line-height:125%;font-family:'Proxima Nova';-inkscape-font-specification:'Proxima Nova Heavy';letter-spacing:0px;word-spacing:0px;fill:#f5f5f1;fill-opacity:1;stroke:none;stroke-width:1px;stroke-linecap:butt;stroke-linejoin:miter;stroke-opacity:1"
       transform="matrix(1.0011397,0,0,0.9988616,-915.04611,-70.90433)">
      <path
         style="fill:#f5f5f1;fill-opacity:1"
         id="path4220-1"
         d="m 37.609969,496.04523 0,-67.85438 41.179561,0 q 5.066726,0 9.040628,1.58956 4.023576,1.53989 6.358243,4.12292 2.334668,2.53336 3.526838,5.51379 1.241845,2.98043 1.241845,6.0602 0,6.15955 -3.278469,10.28247 -3.228796,4.12293 -8.345195,5.26542 5.563463,0.89413 9.239323,5.51379 3.675857,4.61966 3.675857,11.07726 0,3.62618 -1.241842,6.90465 -1.241845,3.2288 -3.626186,5.86151 -2.384341,2.58303 -6.30857,4.12292 -3.924228,1.53989 -8.841932,1.53989 l -42.620101,0 z m 20.51527,-17.08778 16.491694,0 q 2.185646,0 3.477165,-1.1425 1.291518,-1.19217 1.291518,-3.12945 0,-1.8876 -1.341192,-3.12945 -1.291518,-1.24184 -3.427491,-1.24184 l -16.491694,0 0,8.64324 z m 0,-25.73102 15.895609,0 q 1.639234,0 2.831405,-1.1425 1.241845,-1.14249 1.241845,-2.93075 0,-1.68891 -1.241845,-2.78173 -1.192171,-1.09282 -2.831405,-1.09282 l -15.895609,0 0,7.9478 z"
         inkscape:connector-curvature="0" />
    </g>
    <g
       id="text4210-3"
       style="font-style:normal;font-variant:normal;font-weight:bold;font-stretch:normal;font-size:7.14540052px;line-height:125%;font-family:Corbel;-inkscape-font-specification:'Corbel Bold';letter-spacing:0px;word-spacing:0px;fill:#f5f5f1;fill-opacity:1;stroke:none;stroke-width:1px;stroke-linecap:butt;stroke-linejoin:miter;stroke-opacity:1"
       transform="translate(-915.04611,-70.90433)">
      <path
         style="fill:#f5f5f1;fill-opacity:1"
         id="path4215-9"
         d="m 649.65408,427.25546 -0.8548,0 0,-3.95299 -1.50723,0 0,-0.71524 3.86577,0 0,0.71524 -1.50374,0 0,3.95299 z"
         inkscape:connector-curvature="0" />
      <path
         style="fill:#f5f5f1;fill-opacity:1"
         id="path4217-6"
         d="m 654.22113,426.00292 q 0.15352,-0.55125 0.3803,-1.18275 l 0.80595,-2.23294 1.2002,0 0,4.66823 -0.85479,0 0,-2.36552 q 0,-0.51985 0.0419,-1.20718 l -0.0314,0 q -0.0593,0.19887 -0.13955,0.44659 -0.0802,0.24772 -0.16747,0.48846 l -0.96645,2.63765 -0.55125,0 -0.96645,-2.63765 q -0.0872,-0.24074 -0.16747,-0.48846 -0.0802,-0.24772 -0.13956,-0.44659 l -0.0314,0 q 0.0419,0.64546 0.0419,1.2037 l 0,2.369 -0.8548,0 0,-4.66823 1.19323,0 0.80595,2.22247 q 0.20236,0.55474 0.3803,1.19322 l 0.0209,0 z"
         inkscape:connector-curvature="0" />
    </g>
    <path
       id="path4227-1"
       d="m -776.93668,344.59567 -32.41994,58.05469 21.60743,0 10.81251,-19.36133 10.8125,19.36133 21.60742,0 -32.41992,-58.05469 z"
       style="opacity:1;fill:#d89a00;fill-opacity:1;stroke:none;stroke-width:12.89999962;stroke-linecap:round;stroke-linejoin:miter;stroke-miterlimit:4;stroke-dasharray:none;stroke-opacity:0.58928576"
       inkscape:connector-curvature="0" />
    <path
       id="path4227-3-7-8"
       d="m -798.46209,407.57028 -9.66796,17.31445 62.38672,0 -9.66796,-17.31445 -43.0508,0 z"
       style="opacity:1;fill:#d89a00;fill-opacity:1;stroke:none;stroke-width:12.89999962;stroke-linecap:round;stroke-linejoin:miter;stroke-miterlimit:4;stroke-dasharray:none;stroke-opacity:0.58928576"
       inkscape:connector-curvature="0" />
  </g>
</svg>
