<svg xmlns:xlink="http://www.w3.org/1999/xlink" xmlns="http://www.w3.org/2000/svg" version="1.1">
	<defs>
		<pattern id="hatch-capellan-confederation" patternUnits="userSpaceOnUse" width="40" height="40" xmlns="http://www.w3.org/2000/svg">
		  <path d="M-10,10 l20,-20 M0,40 l40,-40 M30,50 l20,-20" stroke="rgba(66,110,51,.4)" stroke-width="16" />
		</pattern>
		<pattern id="hatch-draconis-combine" patternUnits="userSpaceOnUse" width="40" height="40" xmlns="http://www.w3.org/2000/svg">
		  <path d="M-10,10 l20,-20 M0,40 l40,-40 M30,50 l20,-20" stroke="rgba(168,40,27,.4)" stroke-width="16" />
		</pattern>
		<pattern id="hatch-federated-suns" patternUnits="userSpaceOnUse" width="40" height="40" xmlns="http://www.w3.org/2000/svg">
		  <path d="M-10,10 l20,-20 M0,40 l40,-40 M30,50 l20,-20" stroke="rgba(156,97,39,.4)" stroke-width="16" />
		</pattern>
		<pattern id="hatch-free-worlds-league" patternUnits="userSpaceOnUse" width="40" height="40" xmlns="http://www.w3.org/2000/svg">
		  <path d="M-10,10 l20,-20 M0,40 l40,-40 M30,50 l20,-20" stroke="rgba(100,80,141,.4)" stroke-width="16" />
		</pattern>
		<pattern id="hatch-lyran-commonwealth" patternUnits="userSpaceOnUse" width="40" height="40" xmlns="http://www.w3.org/2000/svg">
		  <path d="M-10,10 l20,-20 M0,40 l40,-40 M30,50 l20,-20" stroke="rgba(63,122,170,.4)" stroke-width="16" />
		</pattern>
		<pattern id="hatch-taurian-concordat" patternUnits="userSpaceOnUse" width="40" height="40" xmlns="http://www.w3.org/2000/svg">
		  <path d="M-10,10 l20,-20 M0,40 l40,-40 M30,50 l20,-20" stroke="rgba(216,104,60,.4)" stroke-width="16" />
		</pattern>
		<pattern id="hatch-magistracy-of-canopus" patternUnits="userSpaceOnUse" width="40" height="40" xmlns="http://www.w3.org/2000/svg">
		  <path d="M-10,10 l20,-20 M0,40 l40,-40 M30,50 l20,-20" stroke="rgba(67,224,200,.25)" stroke-width="16" />
		</pattern>
		<pattern id="hatch-marian-hegemony" patternUnits="userSpaceOnUse" width="40" height="40" xmlns="http://www.w3.org/2000/svg">
		  <path d="M-10,10 l20,-20 M0,40 l40,-40 M30,50 l20,-20" stroke="rgba(255,152,84, .4)" stroke-width="16" />
		</pattern>
		<pattern id="hatch-oberon-confederation" patternUnits="userSpaceOnUse" width="40" height="40" xmlns="http://www.w3.org/2000/svg">
		  <path d="M-10,10 l20,-20 M0,40 l40,-40 M30,50 l20,-20" stroke="rgba(234,183,0, .6)" stroke-width="16" />
		</pattern>
		<pattern id="hatch-outworlds-alliance" patternUnits="userSpaceOnUse" width="40" height="40" xmlns="http://www.w3.org/2000/svg">
		  <path d="M-10,10 l20,-20 M0,40 l40,-40 M30,50 l20,-20" stroke="rgba(198,191,161, .5)" stroke-width="16" />
		</pattern>
		<pattern id="hatch-periphery" patternUnits="userSpaceOnUse" width="40" height="40" xmlns="http://www.w3.org/2000/svg">
		  <path d="M-10,10 l20,-20 M0,40 l40,-40 M30,50 l20,-20" stroke="rgba(200,200,200, .6)" stroke-width="16" />
		</pattern>
	</defs>
</svg>
