<svg xmlns:xlink="http://www.w3.org/1999/xlink" xmlns="http://www.w3.org/2000/svg" version="1.1">
	<g transform="translate(-570,680) rotate(-2) scale(2.8)" style="fill:rgba(39,66,44,1);stroke:none;">
	 <!--path d="M 14.123047 101.88672 L 64.423828 189.01172 L 67.322266 184.77734 C 64.406366 182.12287 64.476503 177.70738 66.673828 174.38477 L 35.679688 120.70312 L 41.140625 111.24414 L 104.70312 111.24414 C 106.58695 107.97264 108.40627 104.85586 110.16211 101.88672 L 14.123047 101.88672 z M 134.50781 101.88672 C 132.66573 104.90552 130.79741 108.01503 128.89453 111.24414 L 196.14258 111.24414 L 201.60547 120.70508 L 159.25 194.06445 C 162.27722 195.18911 165.20034 196.33964 167.96289 197.49805 L 223.16406 101.88672 L 134.50781 101.88672 z M 81.103516 199.37891 C 79.567591 202.46937 77.631022 205.3149 75.248047 207.75977 L 118.64258 282.91992 L 143.33789 240.14648 L 140.29492 238.04297 L 140.29297 238.04102 L 139.56445 237.53906 C 138.1881 236.58748 136.95935 235.67237 135.75195 234.76367 L 125.29297 252.87891 L 111.99219 252.87891 L 81.103516 199.37891 z "
		transform="matrix(0.80000004,0,0,0.80000003,151.46408,-303.17563)" /-->
	  <!-- innerer Rahmen -->
	  <path d="m 193.3063,-203.51875 14.65781,25.41093 c 0.50839,-1.23601 1.28408,-2.36712 2.25313,-3.19687 l -10.76719,-18.66718 22.70156,0 3.05938,3.61405 c 0.65851,-1.19629 1.26602,-2.27511 1.90625,-3.42968 l -3.15938,-3.73125 z m 77.34375,0 -3.05469,4.19844 -21.53906,0 c -0.65158,1.16297 -1.31474,2.35349 -1.97813,3.54844 l 25.32188,0 3.05625,-4.2 21.08438,0 -9.25,16.01718 -5.40625,0.91563 -13.44063,23.2875 -3.9875,6.91406 c 1.16663,0.32708 2.33567,0.66928 3.50625,1.01875 l 3.55469,-6.15938 12.60468,-21.84218 5.40469,-0.91719 13.15782,-22.78125 z m -39.77969,65.12031 15.625,27.08906 6.05469,-10.49687 c -0.92209,-0.7523 -1.84147,-1.52423 -2.76094,-2.31093 l -3.29375,5.70936 -10.09687,-17.50624 c -1.87311,-0.85434 -3.71736,-1.6712 -5.52813,-2.48438 z" />
	  <!-- Schwert -->
	  <path d="m 314.70081,-291.33495 c -15.38082,1.06066 -25.74272,7.14596 -30.48044,12.67073 c -18.94157,22.08825 -27.80447,31.26123 -56.77813,83.92984 l 9.97969,5.35782 c 29.45222,-53.96678 46.96867,-77.36244 77.27888,-101.95839 z" />
	  
	  <path d="m 231.03868,-179.82322 c -1.19321,0 -4.0226,-0.0984 -5.05738,0.65135 -2.60476,1.88725 -4.99001,4.05813 -7.56094,5.97812 -0.95235,0.71122 0.34644,1.59701 0.95157,1.83593 3.17699,1.25442 7.19391,0.045 10.12343,-1.49843 l -1.21719,-1.65625 c 2.72532,0.21193 4.1839,1.61063 4.94063,3.76094 -0.81667,-0.3971 -1.62644,-0.80166 -2.42813,-1.20626 -2.09786,3.75368 -5.1077,7.27157 -5.52968,11.71095 -0.31232,3.28569 1.54342,6.13713 2.45,9.16405 -2.74236,-2.69341 -3.68932,-6.28311 -3.71479,-8.41742 -1.28349,1.06915 -2.27403,1.6131 -3.85709,1.85649 -0.23975,2.03043 -2.15054,5.11672 -3.07344,5.45157 -0.71215,0.25838 -6.37202,-1.23845 -9.0821,-1.985 l -1.33352,1.94749 c 2.54295,1.72442 5.21614,3.34515 8.33977,5.08245 l 1.24773,-1.94026 c 6.05725,4.8458 13.32572,7.56192 21.30938,11.2125 l 9.26406,-16.80313 c -1.20329,-1.35805 -2.28769,-3.08901 -2.96875,-4.45156 -1.32883,-2.65849 -0.98862,-5.7294 -1.64844,-8.55625 -0.81621,-3.49688 -1.38167,-7.04049 -4.70469,-9.19531 -2.30687,-1.49589 -3.74937,-2.94197 -6.45043,-2.94197 z m 17.27543,26.06853 -9.325,16.91407 c 1.65057,1.53045 3.2284,2.98555 4.70782,4.33593 l 10.86718,-19.87344 c -2.14743,-0.52505 -4.23632,-0.98305 -6.25,-1.37656 z m 8.01094,1.825 -2.40312,4.39687 c 3.79143,0.1036 9.17507,1.40196 14.57656,3.18438 l 5.07656,-2.30625 c -5.64547,-1.99492 -11.57919,-3.82252 -17.25,-5.275 z m 19.20312,5.96719 -5.05156,2.29375 c 3.54479,1.24443 6.98319,2.65031 9.91094,4.02657 l 5.15157,-2.34064 c -3.08691,-1.34257 -6.46823,-2.68843 -10.01095,-3.97968 z m -22.53281,2.42032 0.83125,5.85936 7.88125,-3.57968 c -3.29721,-1.03463 -6.34025,-1.84339 -8.7125,-2.27968 z m -1.4125,0.28436 -6.54219,11.96251 c 3.26693,2.95681 6.28803,5.60476 9.39063,8.11249 z m 35.7125,2.05782 -5.22344,2.37344 c 2.67065,1.34046 4.75144,2.60691 5.74844,3.59218 l 2.49063,-4.55312 c -0.9577,-0.46751 -1.96784,-0.93891 -3.01563,-1.4125 z m -23.55781,0.59375 -1.03906,0.47187 1.1375,8.01094 10.23593,-4.65 c -3.285,-1.35829 -6.8817,-2.69082 -10.33437,-3.83281 z m -2.40469,1.09375 -7.29531,3.31406 2.03281,14.31719 c 2.66396,2.09661 5.47515,4.17421 8.67188,6.38438 z m 30.55,0.51719 -16.61874,30.39062 c 1.44834,0.91303 2.9236,1.83914 4.53436,2.83125 l 16.72657,-30.59062 c -1.31438,-0.84312 -2.87424,-1.72453 -4.64219,-2.63125 z m -16.01094,2.98593 -2.98906,1.35782 1.18594,8.35469 10.83906,-4.92344 c -1.68087,-1.3422 -5.027,-3.05607 -9.03594,-4.78907 z m -4.35312,1.97656 -7.47187,3.39532 2.30468,16.24063 c 2.24545,1.52353 4.70244,3.1328 7.41719,4.85937 l 0.97344,-1.77968 z m 13.19375,4.48126 -10.43281,4.73906 1.61562,11.38437 z" />
	  
	  <!--path	d="m 217.2972,-191.63953 2.48747,-4.12081 23.3837,13.44881 -2.33762,4.04588 z" /-->
	  <!--path	d="m 215.47961,-181.08431 c -2.04438,-1.26103 2.80958,-6.67087 5.30032,-5.20712 l 7.66875,4.50674 c -3.19496,0.4942 -5.01285,2.72011 -6.90093,4.44336 z" /-->
	  <path d="m 211.54306,-172.54147 c -3.73768,-1.96761 0.58821,-8.77163 3.46625,-6.98087 l 5.0301,3.12979 c -1.53079,0.88983 -3.50545,1.69933 -3.61319,3.47283 -0.0979,1.61179 1.28505,2.83073 2.89392,3.28529 2.76727,0.78185 6.10675,0.24985 8.61394,-0.41216 l -2.8971,4.85521 z" />
	  <path d="m 208.55949,-165.02104 c -2.88961,-1.58432 0.29941,-7.3099 2.91232,-5.85659 l 12.90798,7.17945 c -1.09851,1.90268 -2.8729,5.77597 -6.13633,3.98669 z" />
	  <!--path d="m 209.12018,-162.81365 9.59324,5.25455 c -0.18219,1.651 -0.51278,2.96296 -1.38816,3.46836 -1.6362,0.94466 -7.11811,-0.84612 -10.18428,-3.25322 -2.21739,-1.74078 -0.14056,-6.63075 1.9792,-5.46969 z" /-->
	  <!--path d="m 195.47192,-143.21633 c 4.75603,-1.58441 7.25051,-4.41604 10.36945,-7.46989 2.69725,1.80566 5.42447,3.55888 8.1517,5.32708 -2.39218,5.02013 -5.95205,8.92483 -11.31349,10.96883 -1.05716,0.40304 -2.27276,0.59599 -3.35636,-0.58315 -1.67704,-1.82491 -3.34182,-4.85631 -3.8513,-8.24287 z" /-->
	</g>
</svg>